# xmcd
# 
# Track frame offsets:
#     150
#     20971
#     45994
#     59660
#     81842
#     101327
#     112101
#     128331
#     142843
# 
# Disc length: 2137
# 
# Revision: 0
# Processed by: cddbd v1.5.2PL0 Copyright (c) Steve Scherf et al.
# Submitted via: BonkEnc v1.0.8
# 
DISCID=72085709
DTITLE=Vargas Blues Band - Mojo Proteccion
DYEAR=2009
DGENRE=Blues
TTITLE0=Ride With My Blues
TTITLE1=Mojo Proteccion
TTITLE2=Suffering Screams
TTITLE3=Childrens And Guns
TTITLE4=Too Many Lies
TTITLE5=Reasons To Cry
TTITLE6=I Am Amazed
TTITLE7=Love On The Run
TTITLE8=Time Will Come
EXTD=
EXTT0=
EXTT1=
EXTT2=
EXTT3=
EXTT4=
EXTT5=
EXTT6=
EXTT7=
EXTT8=
PLAYORDER=
